ModelForces
version=1
nRows=4
nColumns=151
inDegrees=no

This file contains the forces exerted on a model during a simulation.

A force is a generalized force, meaning that it can be either a force (N) or a torque (Nm).

Units are S.I. units (second, meters, Newtons, ...)
Angles are in degrees.

endheader
time	glut_med1_r	glut_med2_r	glut_med3_r	glut_min1_r	glut_min2_r	glut_min3_r	semimem_r	semiten_r	bifemlh_r	bifemsh_r	sar_r	add_long_r	add_brev_r	add_mag1_r	add_mag2_r	add_mag3_r	tfl_r	pect_r	grac_r	glut_max1_r	glut_max2_r	glut_max3_r	iliacus_r	psoas_r	quad_fem_r	gem_r	peri_r	rect_fem_r	vas_med_r	vas_int_r	vas_lat_r	med_gas_r	lat_gas_r	soleus_r	tib_post_r	flex_dig_r	flex_hal_r	tib_ant_r	per_brev_r	per_long_r	per_tert_r	ext_dig_r	ext_hal_r	glut_med1_l	glut_med2_l	glut_med3_l	glut_min1_l	glut_min2_l	glut_min3_l	semimem_l	semiten_l	bifemlh_l	bifemsh_l	sar_l	add_long_l	add_brev_l	add_mag1_l	add_mag2_l	add_mag3_l	tfl_l	pect_l	grac_l	glut_max1_l	glut_max2_l	glut_max3_l	iliacus_l	psoas_l	quad_fem_l	gem_l	peri_l	rect_fem_l	vas_med_l	vas_int_l	vas_lat_l	med_gas_l	lat_gas_l	soleus_l	tib_post_l	flex_dig_l	flex_hal_l	tib_ant_l	per_brev_l	per_long_l	per_tert_l	ext_dig_l	ext_hal_l	ercspn_r	ercspn_l	intobl_r	intobl_l	extobl_r	extobl_l	contactForce_femur_lat_meniscii_l.femur_lat_l.force.X	contactForce_femur_lat_meniscii_l.femur_lat_l.force.Y	contactForce_femur_lat_meniscii_l.femur_lat_l.force.Z	contactForce_femur_lat_meniscii_l.femur_lat_l.torque.X	contactForce_femur_lat_meniscii_l.femur_lat_l.torque.Y	contactForce_femur_lat_meniscii_l.femur_lat_l.torque.Z	contactForce_femur_lat_meniscii_l.meniscus_lat_l.force.X	contactForce_femur_lat_meniscii_l.meniscus_lat_l.force.Y	contactForce_femur_lat_meniscii_l.meniscus_lat_l.force.Z	contactForce_femur_lat_meniscii_l.meniscus_lat_l.torque.X	contactForce_femur_lat_meniscii_l.meniscus_lat_l.torque.Y	contactForce_femur_lat_meniscii_l.meniscus_lat_l.torque.Z	contactForce_femur_med_meniscii_l.femur_med_l.force.X	contactForce_femur_med_meniscii_l.femur_med_l.force.Y	contactForce_femur_med_meniscii_l.femur_med_l.force.Z	contactForce_femur_med_meniscii_l.femur_med_l.torque.X	contactForce_femur_med_meniscii_l.femur_med_l.torque.Y	contactForce_femur_med_meniscii_l.femur_med_l.torque.Z	contactForce_femur_med_meniscii_l.meniscus_med_l.force.X	contactForce_femur_med_meniscii_l.meniscus_med_l.force.Y	contactForce_femur_med_meniscii_l.meniscus_med_l.force.Z	contactForce_femur_med_meniscii_l.meniscus_med_l.torque.X	contactForce_femur_med_meniscii_l.meniscus_med_l.torque.Y	contactForce_femur_med_meniscii_l.meniscus_med_l.torque.Z	contactForce_femur_lat_meniscii_r.femur_lat_r.force.X	contactForce_femur_lat_meniscii_r.femur_lat_r.force.Y	contactForce_femur_lat_meniscii_r.femur_lat_r.force.Z	contactForce_femur_lat_meniscii_r.femur_lat_r.torque.X	contactForce_femur_lat_meniscii_r.femur_lat_r.torque.Y	contactForce_femur_lat_meniscii_r.femur_lat_r.torque.Z	contactForce_femur_lat_meniscii_r.meniscus_lat_r.force.X	contactForce_femur_lat_meniscii_r.meniscus_lat_r.force.Y	contactForce_femur_lat_meniscii_r.meniscus_lat_r.force.Z	contactForce_femur_lat_meniscii_r.meniscus_lat_r.torque.X	contactForce_femur_lat_meniscii_r.meniscus_lat_r.torque.Y	contactForce_femur_lat_meniscii_r.meniscus_lat_r.torque.Z	contactForce_femur_med_meniscii_r.femur_med_r.force.X	contactForce_femur_med_meniscii_r.femur_med_r.force.Y	contactForce_femur_med_meniscii_r.femur_med_r.force.Z	contactForce_femur_med_meniscii_r.femur_med_r.torque.X	contactForce_femur_med_meniscii_r.femur_med_r.torque.Y	contactForce_femur_med_meniscii_r.femur_med_r.torque.Z	contactForce_femur_med_meniscii_r.meniscus_med_r.force.X	contactForce_femur_med_meniscii_r.meniscus_med_r.force.Y	contactForce_femur_med_meniscii_r.meniscus_med_r.force.Z	contactForce_femur_med_meniscii_r.meniscus_med_r.torque.X	contactForce_femur_med_meniscii_r.meniscus_med_r.torque.Y	contactForce_femur_med_meniscii_r.meniscus_med_r.torque.Z	aACL_R	pACL_R	aPCL_R	pPCL_R	aMCL_R	aLCL_R	aPCL_L	pPCL_L	aMCL_L	aLCL_L
      0.33103422	      7.99196491	      5.97122302	      6.39586972	      2.79605153	      3.32736845	      3.38015426	      9.53914478	      7.11029680	     10.87679662	      0.00000000	      2.34250900	      5.91955766	      4.35261574	      3.07513714	      2.58826121	      4.23006011	      5.20729098	      2.35491751	      0.00000000	      3.85307760	      5.85631130	      4.37579466	     23.20193755	     13.59117423	      3.81787853	      2.94406867	      4.43580353	      1.02892069	      0.00000000	      0.38818774	      0.00000000	      0.00000000	      0.00000000	      1.33269653	      0.00000000	      0.00000000	      0.00000000	     23.02385622	      7.86452182	     16.61882399	      0.00000000	     19.98269538	      3.92875660	     11.45793209	      5.57632106	      4.47043148	      5.21231587	      5.24053298	      3.22607365	     11.41186160	      5.02041716	     10.31730435	      9.67246861	      1.81632634	      6.05426221	      3.90006807	      2.26694856	      2.06035903	      3.45494738	      5.35286617	      2.39247554	      1.78176296	      3.13934280	      4.59424001	      2.86654654	     25.00886775	     15.40966207	      1.79332651	      0.65232926	      1.82610339	     10.81094518	      5.55878000	      6.65931086	      8.05366493	      3.79843901	      1.72599990	      5.49305810	      7.57359562	      1.50292363	      0.70096901	     18.51409236	      2.91076993	      5.59836998	     12.69019453	     12.98096139	      3.22631477	     26.29914392	     26.29914392	      9.50783492	      9.50783492	     27.26081489	     27.26081489	      0.00000000	      0.00000000	      0.00000000	      0.00000000	      0.00000000	      0.00000000	      0.00000000	      0.00000000	      0.00000000	      0.00000000	      0.00000000	      0.00000000	     -2.60383218	     29.99038877	     -3.84582908	      1.06004810	      0.06393113	     -0.09294598	      2.60383218	    -29.99038877	      3.84582908	      0.34742761	     -0.02149880	     -0.52909637	      0.00000000	      0.00000000	      0.00000000	      0.00000000	      0.00000000	      0.00000000	      0.00000000	      0.00000000	      0.00000000	      0.00000000	      0.00000000	      0.00000000	     40.84408540	      7.04282821	     13.15105395	     -5.33079960	     -1.13022814	     17.14497560	    -40.84408540	     -7.04282821	    -13.15105395	      0.32983205	      0.90611177	     -1.49312293	      0.00000000	      0.00000000	     41.18040115	     32.07865171	      0.00000000	      0.00000000	     -2.21053179	      0.00000000	      0.00000000	      6.55315368
      0.33156948	      7.98888381	      5.96910656	      6.39357451	      2.79510259	      3.32634041	      3.37885392	      9.59989584	      7.11903363	     10.90108638	      0.00000000	      2.34163023	      5.91743488	      4.35115202	      3.07405482	      2.58732843	      4.22837587	      5.20196079	      2.35411311	      0.00000000	      3.85171224	      5.85422988	      4.37421118	     23.19809306	     13.58683692	      3.81655446	      2.94344505	      4.43348363	      1.02933451	      0.00000000	      0.38767896	      0.00000000	      0.00000000	      0.00000000	      1.29471914	      0.00000000	      0.00000000	      0.00000000	     23.00630414	      7.85666709	     16.60551874	      0.00000000	     20.09860704	      3.94240792	     11.46156068	      5.58073650	      4.47448726	      5.21703854	      5.24599581	      3.23296312	     11.41797770	      5.02151925	     10.30691994	      9.66302356	      1.81687648	      6.03799860	      3.89411308	      2.26157272	      2.05661015	      3.45093923	      5.35067425	      2.38786649	      1.78188795	      3.13926935	      4.59319958	      2.86307325	     25.01605489	     15.41234190	      1.79122039	      0.65210062	      1.82795959	     10.80439346	      5.55418720	      6.64871434	      8.03655259	      3.81749267	      1.73059965	      5.50532247	      7.64499364	      1.49904499	      0.71033108	     18.53595003	      2.89821428	      5.58402376	     12.69291313	     13.00226929	      3.23302115	     26.29019798	     26.29019798	      9.50431419	      9.50431419	     27.25765160	     27.25765160	      0.00000000	      0.00000000	      0.00000000	      0.00000000	      0.00000000	      0.00000000	      0.00000000	      0.00000000	      0.00000000	      0.00000000	      0.00000000	      0.00000000	     -2.62952989	     29.86990681	     -3.82880048	      1.05480335	      0.06276213	     -0.10811377	      2.62952989	    -29.86990681	      3.82880048	      0.34527831	     -0.02093699	     -0.52713574	      0.00000000	      0.00000000	      0.00000000	      0.00000000	      0.00000000	      0.00000000	      0.00000000	      0.00000000	      0.00000000	      0.00000000	      0.00000000	      0.00000000	     39.63815551	      6.70917835	     12.52482117	     -5.07579258	     -1.09235161	     16.63471238	    -39.63815551	     -6.70917835	    -12.52482117	      0.31280796	      0.87611183	     -1.44513692	      0.00000000	      0.00000000	     40.34172038	     30.97105443	      0.00000000	      0.00000000	     -2.22627993	      0.00000000	      0.00000000	      6.43763455
      0.33201773	      7.98631999	      5.96734540	      6.39166462	      2.79431294	      3.32548495	      3.37777189	      9.65108199	      7.09445859	     10.92141856	      0.00000000	      2.34086347	      5.91566846	      4.34993400	      3.07315419	      2.58655224	      4.22697440	      5.19778592	      2.35344374	      0.00000000	      3.85057608	      5.85249788	      4.37289354	     23.19489400	     13.58322784	      3.81545266	      2.94292614	      4.43155248	      1.02967265	      0.00000000	      0.38741469	      0.00000000	      0.00000000	      0.00000000	      1.31579936	      0.00000000	      0.00000000	      0.00000000	     22.99443781	      7.84933212	     16.59313729	      0.00000000	     20.19590786	      3.95384204	     11.46437230	      5.58439195	      4.47791855	      5.22096491	      5.25051522	      3.23870326	     11.42309805	      5.02247976	     10.29812268	      9.65530802	      1.81735002	      6.02444284	      3.88918833	      2.25714367	      2.05351298	      3.44760857	      5.34885870	      2.38404111	      1.78202559	      3.13921526	      4.59234997	      2.86021425	     25.02208472	     15.41460707	      1.78953671	      0.65195102	      1.82958345	     10.79859088	      5.55045575	      6.63985360	      8.02208537	      3.83318723	      1.73430736	      5.51515694	      7.70471403	      1.49623785	      0.71843202	     18.55437871	      2.88773285	      5.57186750	     12.69510042	     13.01953120	      3.23846995	     26.28275373	     26.28275373	      9.50138453	      9.50138453	     27.25501938	     27.25501938	      0.00000000	      0.00000000	      0.00000000	      0.00000000	      0.00000000	      0.00000000	      0.00000000	      0.00000000	      0.00000000	      0.00000000	      0.00000000	      0.00000000	     -2.70275104	     29.77470428	     -3.82345912	      1.05408363	      0.06114764	     -0.14256216	      2.70275104	    -29.77470428	      3.82345912	      0.34322062	     -0.01984573	     -0.52353974	      0.00000000	      0.00000000	      0.00000000	      0.00000000	      0.00000000	      0.00000000	      0.00000000	      0.00000000	      0.00000000	      0.00000000	      0.00000000	      0.00000000	     38.54532043	      6.48542318	     11.93761938	     -4.83442438	     -1.05893856	     16.17184341	    -38.54532043	     -6.48542318	    -11.93761938	      0.29492536	      0.84996970	     -1.40074959	      0.00000000	      0.00000000	     39.62856110	     30.01854071	      0.00000000	      0.00000000	     -2.24073762	      0.00000000	      0.00000000	      6.34227770
      0.33238744	      7.98421662	      5.96590051	      6.39009771	      2.79366508	      3.32478311	      3.37688419	      9.69308893	      7.12358886	     10.93810166	      0.00000000	      2.34015237	      5.91421926	      4.34893469	      3.07241530	      2.58591545	      4.22582463	      5.19446649	      2.35289458	      0.00000000	      3.84964396	      5.85107692	      4.37181253	     23.19226945	     13.58026696	      3.81454872	      2.94250043	      4.42996765	      1.03005193	      0.00000000	      0.38745463	      0.00000000	      0.00000000	      0.00000000	      1.30016825	      0.00000000	      0.00000000	      0.00000000	     22.98693831	      7.84258165	     16.58180165	      0.00000000	     20.27563137	      3.96320905	     11.46653679	      5.58737529	      4.48076998	      5.22418001	      5.25420354	      3.24341596	     11.42733551	      5.02330422	     10.29080830	      9.64906125	      1.81775363	      6.01330912	      3.88517039	      2.25353974	      2.05098665	      3.44487851	      5.34737570	      2.38091138	      1.78216275	      3.13917387	      4.59166085	      2.85788742	     25.02707198	     15.41649271	      1.78820601	      0.65185629	      1.83096933	     10.79361511	      5.54749208	      6.63259095	      8.01011288	      3.84596080	      1.73727207	      5.52298683	      7.75390794	      1.49422362	      0.72529308	     18.56965065	      2.87912203	      5.56175674	     12.69684914	     13.03335874	      3.24284522	     26.27664624	     26.27664624	      9.49898100	      9.49898100	     27.25285988	     27.25285988	      0.00000000	      0.00000000	      0.00000000	      0.00000000	      0.00000000	      0.00000000	      0.00000000	      0.00000000	      0.00000000	      0.00000000	      0.00000000	      0.00000000	     -2.70947489	     29.69493311	     -3.80919977	      1.04931227	      0.06047240	     -0.14826704	      2.70947489	    -29.69493311	      3.80919977	      0.34191610	     -0.01959656	     -0.52265943	      0.00000000	      0.00000000	      0.00000000	      0.00000000	      0.00000000	      0.00000000	      0.00000000	      0.00000000	      0.00000000	      0.00000000	      0.00000000	      0.00000000	     37.73535687	      6.20303431	     11.46658488	     -4.64378241	     -1.03419560	     15.82981853	    -37.73535687	     -6.20303431	    -11.46658488	      0.28320905	      0.83081335	     -1.36959512	      0.00000000	      0.00000000	     39.04584904	     29.24828364	      0.00000000	      0.00000000	     -2.25419754	      0.00000000	      0.00000000	      6.26466164
